<?xml version="1.0" standalone="no"?>
<!DOCTYPE svg PUBLIC "-//W3C//DTD SVG 20010904//EN"
 "http://www.w3.org/TR/2001/REC-SVG-20010904/DTD/svg10.dtd">
<svg 
  version="1.0" 
  xmlns="http://www.w3.org/2000/svg" 
  width="40px" 
  height="40px" 
  viewBox="0 0 1280 1191" 
  preserveAspectRatio="xMidYMid meet" 
  fill="#ff00aad5" 
>
  <g transform="translate(0.000000,1191.000000) scale(0.100000,-0.100000)" stroke="none">
    <path d="M3335 11899 c-27 -4 -102 -13 -165 -20 -806 -81 -1574 -455 -2150
    -1045 -563 -577 -912 -1317 -990 -2099 -6 -60 -15 -135 -20 -166 -13 -72 -13
    -369 0 -456 5 -38 14 -133 20 -213 69 -910 422 -1794 1032 -2583 246 -318 474
    -571 829 -922 349 -345 486 -469 1379 -1255 414 -364 494 -436 765 -684 652
    -598 1231 -1217 1686 -1801 177 -228 453 -608 466 -642 4 -10 50 -13 212 -13
    l207 0 139 207 c419 622 867 1162 1480 1782 410 414 667 654 1581 1468 573
    510 784 704 1063 978 713 700 1162 1289 1472 1930 253 525 383 1011 440 1645
    17 188 22 476 11 550 -6 36 -16 115 -22 175 -83 816 -458 1586 -1056 2165
    -570 553 -1313 902 -2084 979 -63 7 -143 16 -176 21 -79 13 -329 13 -408 0
    -33 -5 -113 -14 -176 -20 -906 -88 -1789 -568 -2369 -1290 -47 -58 -92 -105
    -101 -105 -9 0 -54 47 -100 105 -106 132 -394 421 -523 524 -548 437 -1189
    702 -1847 766 -63 6 -143 15 -176 20 -72 12 -347 11 -419 -1z"/>
  </g>
</svg>
